<svg id="Capa_1" enable-background="new 0 0 512 512" height="512" viewBox="0 0 512 512" width="512" xmlns="http://www.w3.org/2000/svg"><g><path d="m392 330h90v167h-90z" fill="#fed843"/><path d="m150 300h91v197h-91z" fill="#fed843"/><path d="m271 240h91v257h-91z" fill="#97de3d"/><path d="m30 180h90v317h-90z" fill="#97de3d"/><path d="m75 180h45v317h-45z" fill="#59c36a"/><path d="m196 300h45v197h-45z" fill="#fabe2c"/><path d="m316 240h46v257h-46z" fill="#59c36a"/><path d="m437 330h45v167h-45z" fill="#fabe2c"/><g><path d="m256 482h-256v30h256 256v-30z" fill="#2d5177"/><path d="m256 482h256v30h-256z" fill="#32405d"/><path d="m482 150v68.789l-166-165-60 60-60 60-174.789-173.789-21.211 21.211 196 195 60-60 60-60 144.789 143.789h-68.789v30h120v-120z" fill="#ff641a"/><path d="m460.789 240h-68.789v30h120v-120h-30v68.789l-166-165-60 60v42.422l60-60z" fill="#f03800"/></g></g></svg>